<svg xmlns="http://www.w3.org/2000/svg" x="0px" y="0px" width="100" height="100" viewBox="0 0 48 48">
  <defs>
    <mask id="reverseMask">
      <path fill="white" d="M13.5,6c-4.1245,0 -7.5,3.3755 -7.5,7.5v21c0,4.1245 3.3755,7.5 7.5,7.5h6.35156c0.54095,0.00765 1.04412,-0.27656 1.31683,-0.74381c0.27271,-0.46725 0.27271,-1.04514 0,-1.51238c-0.27271,-0.46725 -0.77588,-0.75146 -1.31683,-0.74381h-6.35156c-2.5035,0 -4.5,-1.9965 -4.5,-4.5v-21c0,-2.5035 1.9965,-4.5 4.5,-4.5h12.81836c0.54095,0.00765 1.04412,-0.27656 1.31683,-0.74381c0.27271,-0.46725 0.27271,-1.04514 0,-1.51238c-0.27271,-0.46725 -0.77588,-0.75146 -1.31683,-0.74381zM32.14844,6c-0.54095,-0.00765 -1.04412,0.27656 -1.31683,0.74381c-0.27271,0.46725 -0.27271,1.04514 0,1.51238c0.27271,0.46725 0.77588,0.75146 1.31683,0.74381h2.35156c2.5035,0 4.5,1.9965 4.5,4.5v21c0,2.5035 -1.9965,4.5 -4.5,4.5h-8.73437c-0.54095,-0.00765 -1.04412,0.27656 -1.31683,0.74381c-0.27271,0.46725 -0.27271,1.04514 0,1.51238c0.27271,0.46725 0.77588,0.75146 1.31683,0.74381h8.73438c4.1245,0 7.5,-3.3755 7.5,-7.5v-21c0,-4.1245 -3.3755,-7.5 -7.5,-7.5zM17.97266,13.91992c-2.876,-0.124 -4.04101,2.10395 -4.04101,2.75195c0,0.449 -0.6133,5.84178 5.4707,11.92578c6.084,6.084 11.47778,5.4707 11.92578,5.4707c0.648,0 2.87595,-1.16401 2.75195,-4.04102c-0.022,-0.507 -0.30614,-0.97195 -0.74414,-1.25195c-0.499,-0.32 -1.2742,-0.81594 -2.2832,-1.46094c-0.921,-0.588 -2.10931,-0.62952 -3.07031,-0.10352l-0.875,0.37305c-0.455,0.32 -1.03778,0.38392 -1.55078,0.16992c-0.799,-0.334 -2.02673,-0.98181 -3.17773,-2.13281c-1.151,-1.151 -1.79881,-2.37873 -2.13281,-3.17773c-0.215,-0.513 -0.15008,-1.09578 0.16992,-1.55078l0.37305,-0.875c0.526,-0.96 0.48548,-2.14931 -0.10352,-3.07031c-0.646,-1.01 -1.14194,-1.7842 -1.46094,-2.2832c-0.281,-0.438 -0.74595,-0.72214 -1.25195,-0.74414z"></path>
    </mask>
  </defs>

  <rect x="0" y="0" width="48" height="48" fill="#007bc1" rx="5" ry="5" />

  <rect x="0" y="0" width="48" height="48" fill="white" mask="url(#reverseMask)" rx="5" ry="5" />

</svg>